<svg width="25" height="25" viewBox="0 0 25 25" fill="none" xmlns="http://www.w3.org/2000/svg">
<path d="M13.6047 0.457485C13.3117 0.164557 12.9143 0 12.5 0C12.0857 0 11.6883 0.164557 11.3953 0.457485L0.457492 11.3951C0.239034 11.6137 0.0902697 11.892 0.0300062 12.1951C-0.0302572 12.4981 0.000685879 12.8123 0.118923 13.0977C0.237161 13.3832 0.437384 13.6272 0.694282 13.7989C0.951179 13.9706 1.25322 14.0623 1.56221 14.0624H3.12475V23.4375C3.12475 23.8519 3.28937 24.2493 3.58241 24.5423C3.87544 24.8354 4.27288 25 4.68729 25H10.9375V18.7499H14.0625V25H20.3127C20.7271 25 21.1246 24.8354 21.4176 24.5423C21.7106 24.2493 21.8752 23.8519 21.8752 23.4375V14.0624H23.4378C23.7468 14.0623 24.0488 13.9706 24.3057 13.7989C24.5626 13.6272 24.7628 13.3832 24.8811 13.0977C24.9993 12.8123 25.0303 12.4981 24.97 12.1951C24.9097 11.892 24.761 11.6137 24.5425 11.3951L13.6047 0.457485Z" fill="#22C55E"/>
</svg>
